<svg version="1.1" xmlns="http://www.w3.org/2000/svg" xmlns:xlink="http://www.w3.org/1999/xlink" x="0px" y="0px"
	 width="140px" height="140px" viewBox="0 0 140 140" enable-background="new 0 0 140 140" xml:space="preserve">
<radialGradient id="SVGID_1_" cx="-8308.3711" cy="-8196.252" r="57.7842" gradientTransform="matrix(1.1627 0 0 -1.1627 9730.5957 -9460.1934)" gradientUnits="userSpaceOnUse">
	<stop  offset="0" style="stop-color:#F6F6CA"/>
	<stop  offset="0.2146" style="stop-color:#F7F2C5"/>
	<stop  offset="0.4376" style="stop-color:#F8EAB8"/>
	<stop  offset="0.6644" style="stop-color:#F9DEA4"/>
	<stop  offset="0.8926" style="stop-color:#FCCE89"/>
	<stop  offset="1" style="stop-color:#FDC57B"/>
</radialGradient>
<path fill="url(#SVGID_1_)" stroke="#E9B16C" stroke-width="2" stroke-miterlimit="10" d="M3.269,69.622
	c0,37.104,30.071,67.186,67.189,67.186c37.095,0,67.179-30.081,67.179-67.186c0-37.102-30.084-67.178-67.179-67.178
	C33.34,2.444,3.269,32.521,3.269,69.622z"/>
<path fill="#762817" d="M85.711,49.89c0-7.422,2.522-13.427,5.641-13.427c3.114,0,5.637,6.005,5.637,13.427
	c0,7.415-2.522,13.43-5.637,13.43C88.233,63.32,85.711,57.305,85.711,49.89z"/>
<path fill="#762817" d="M53.542,49.134c5.844,0,10.957,3.009,13.811,7.521c0.118-0.742,0.19-1.505,0.19-2.286
	c0-7.733-6.27-14.002-14-14.002c-7.736,0-14.002,6.269-14.002,14.002c0,0.78,0.068,1.537,0.187,2.286
	C42.587,52.143,47.702,49.134,53.542,49.134z"/>
<g>
	<path fill="#7B4243" d="M26.853,83.365h0.005l2.265-0.843c6.476,17.612,23.263,27.007,43.022,27.001l0,0
		c19.758,0.006,36.544-9.389,43.024-27.001l0,0l2.265,0.843c-6.811,18.533-24.494,31.774-45.289,31.779l0,0
		C51.345,115.14,33.662,101.898,26.853,83.365L26.853,83.365z"/>
	<path fill="#7B4243" d="M26.853,80.023h0.005l2.265-0.843c6.476,17.612,23.263,27.007,43.022,27.001l0,0
		c19.758,0.006,36.544-9.389,43.024-27.001l0,0l2.265,0.843c-6.811,18.533-24.494,31.775-45.289,31.78l0,0
		C51.345,111.799,33.662,98.557,26.853,80.023L26.853,80.023z"/>
	<path fill="#711212" d="M26.853,81.543h0.005l2.265-0.844c6.476,17.613,23.263,27.007,43.022,27.002l0,0
		c19.758,0.005,36.544-9.389,43.024-27.002l0,0l2.265,0.844c-6.811,18.531-24.494,31.775-45.289,31.779l0,0
		C51.345,113.318,33.662,100.074,26.853,81.543L26.853,81.543z"/>
</g>
</svg>
