<?xml version="1.0" encoding="utf-8"?>
<!-- Generator: Adobe Illustrator 16.2.1, SVG Export Plug-In . SVG Version: 6.00 Build 0)  -->
<!DOCTYPE svg PUBLIC "-//W3C//DTD SVG 1.1//EN" "http://www.w3.org/Graphics/SVG/1.1/DTD/svg11.dtd">
<svg version="1.1" id="Layer_1" xmlns="http://www.w3.org/2000/svg" xmlns:xlink="http://www.w3.org/1999/xlink" x="0px" y="0px"
	 width="140px" height="140px" viewBox="0 0 140 140" enable-background="new 0 0 140 140" xml:space="preserve">
<radialGradient id="SVGID_1_" cx="69.9219" cy="70.0557" r="67.2683" gradientUnits="userSpaceOnUse">
	<stop  offset="0" style="stop-color:#F6F6CA"/>
	<stop  offset="0.2146" style="stop-color:#F7F2C5"/>
	<stop  offset="0.4376" style="stop-color:#F8EAB8"/>
	<stop  offset="0.6644" style="stop-color:#F9DEA4"/>
	<stop  offset="0.8926" style="stop-color:#FCCE89"/>
	<stop  offset="1" style="stop-color:#FDC57B"/>
</radialGradient>
<path fill="url(#SVGID_1_)" stroke="#E9B16C" stroke-width="2" stroke-miterlimit="10" d="M137.021,70.058
	c0,37.241-30.048,67.435-67.101,67.435c-37.056,0-67.099-30.193-67.099-67.435c0-37.244,30.043-67.438,67.099-67.438
	C106.974,2.619,137.021,32.813,137.021,70.058z"/>
<g>
	
		<linearGradient id="SVGID_2_" gradientUnits="userSpaceOnUse" x1="44.3345" y1="33.7031" x2="44.3345" y2="46.6484" gradientTransform="matrix(1 0 0 1 -9.765625e-04 1.001)">
		<stop  offset="0" style="stop-color:#954A2B"/>
		<stop  offset="1" style="stop-color:#6C2511"/>
	</linearGradient>
	<path fill="url(#SVGID_2_)" d="M45.065,47.886c7.203,0,13.646-0.674,17.936,4.034c-1.27-8.399-9.093-13.651-18.583-13.651
		c-10.146,0-18.394,6.176-18.752,15.422C29.872,47.972,36.988,47.886,45.065,47.886z"/>
	
		<linearGradient id="SVGID_3_" gradientUnits="userSpaceOnUse" x1="278.3047" y1="33.7031" x2="278.3047" y2="46.6484" gradientTransform="matrix(-1 0 0 1 374.582 1.001)">
		<stop  offset="0" style="stop-color:#954A2B"/>
		<stop  offset="1" style="stop-color:#6C2511"/>
	</linearGradient>
	<path fill="url(#SVGID_3_)" d="M95.547,49.111c-7.202,0-13.648-1.899-17.938,2.809c1.271-8.399,9.096-13.651,18.586-13.651
		c10.144,0,18.396,6.176,18.75,15.422C110.74,47.972,103.624,49.111,95.547,49.111z"/>
</g>
<path fill="#7B4243" d="M55.667,118.544c0,0,14.215,4.23,29.993,0c0,0,0.643,0.473-0.691,1.112
	c-4.547,2.188-16.771,5.175-28.804,0.188C55.53,119.58,55.577,119.489,55.667,118.544z"/>
<g>
	<path fill="#7B4243" d="M108.52,104.431c-3.918,5.564-8.667,5.176-16.342,4.387c-17.957-1.171-25.72-1.056-45.378,0
		c-7.147,0.641-12.419,1.178-16.343-4.387l0,0c-3.92-5.493-3.77-21.831,4.4-27.359c9.467-3.036,31.416-1.6,34.36-1.595
		c3.451,0.005,26.807-1.441,34.906,1.595C112.294,82.6,112.442,98.938,108.52,104.431L108.52,104.431z"/>
</g>
<g>
	<path fill="#711212" d="M108.52,101.915c-3.918,5.564-8.667,5.176-16.342,4.387c-17.957-1.171-25.72-1.056-45.378,0
		c-7.147,0.641-12.419,1.178-16.343-4.387l0,0c-3.92-5.493-3.77-21.831,4.4-27.359c9.467-3.036,30.632-0.114,34.36,0.921
		c3.473-0.983,26.807-3.957,34.906-0.921C112.294,80.084,112.442,96.422,108.52,101.915L108.52,101.915z"/>
</g>
<radialGradient id="SVGID_4_" cx="69.3984" cy="91.2363" r="26.7266" gradientUnits="userSpaceOnUse">
	<stop  offset="0" style="stop-color:#FFFFFF"/>
	<stop  offset="0.3419" style="stop-color:#FCFCFC"/>
	<stop  offset="0.6008" style="stop-color:#F2F2F2"/>
	<stop  offset="0.8316" style="stop-color:#E2E2E2"/>
	<stop  offset="1" style="stop-color:#D1D1D1"/>
</radialGradient>
<path fill="url(#SVGID_4_)" d="M100.466,102.271c-3.919,5.313-2.657,4.484-10.126,3.914c-27.328-1.164-30.416-0.503-43.541,0.117
	c-10.364,1.56-9.445-10.159-7.914-15.061c0,0-6.357-5.745-3.08-14.449c12.118-2.401,26.21,0.509,33.507,1.582
	c10.013-2.375,31.765-2.793,33.978-1.584c1.466,9.458,0,12.153-0.374,14.451L100.466,102.271z"/>
<linearGradient id="SVGID_5_" gradientUnits="userSpaceOnUse" x1="-312.0654" y1="11.8159" x2="-247.8368" y2="11.8159" gradientTransform="matrix(-1 0 0 -1 -210.6562 103.0664)">
	<stop  offset="0" style="stop-color:#424242"/>
	<stop  offset="0.005" style="stop-color:#4A4A4A"/>
	<stop  offset="0.0308" style="stop-color:#6F6F6F"/>
	<stop  offset="0.0598" style="stop-color:#8F8F8F"/>
	<stop  offset="0.0919" style="stop-color:#AAAAAA"/>
	<stop  offset="0.1282" style="stop-color:#C0C0C0"/>
	<stop  offset="0.1705" style="stop-color:#D1D1D1"/>
	<stop  offset="0.2228" style="stop-color:#DDDDDD"/>
	<stop  offset="0.2962" style="stop-color:#E4E4E4"/>
	<stop  offset="0.5" style="stop-color:#E6E6E6"/>
	<stop  offset="0.7072" style="stop-color:#E4E4E4"/>
	<stop  offset="0.7818" style="stop-color:#DDDDDD"/>
	<stop  offset="0.835" style="stop-color:#D1D1D1"/>
	<stop  offset="0.878" style="stop-color:#C0C0C0"/>
	<stop  offset="0.9148" style="stop-color:#AAAAAA"/>
	<stop  offset="0.9474" style="stop-color:#8F8F8F"/>
	<stop  offset="0.9762" style="stop-color:#6F6F6F"/>
	<stop  offset="1" style="stop-color:#4F4F4F"/>
</linearGradient>
<path fill="url(#SVGID_5_)" d="M42.401,90.484l-0.066,14.692c0.242,0.14,0.482,0.562,0.723,0.502l0.07-15.295
	c3.764-1.154,7.748,0.346,11.93,0.192l-0.037,15.297c0.241-0.033,0.485,0.012,0.725-0.02l0.038-15.39
	c4.118-0.59,8.387,0.291,12.801,0.266l0.072,14.821c0.247,0,0.486,0.006,0.727,0.006L69.31,90.729
	c4.377,0.021,8.616-0.865,12.704-0.285l0.04,15.417c0.247,0.029,0.483,0,0.728,0.026l-0.039-15.327
	c4.176,0.633,8.08-1.484,11.843-0.33l0.087,16.315c0.242,0.058,0.355-0.048,0.593,0.008l0.13-15.999
	c3.961,0.993,4.176,0.645,4.176,0.645c0.168-0.532-2.245-0.884-4.176-1.421V76.135c-0.238-0.206-0.506-0.021-0.678-0.002
	l-0.132,13.316c-3.772-1.136-7.671,0.993-11.843,0.373L82.73,76.552c-0.242-0.086-0.477,0.181-0.726,0.095l0.009,13.061
	c-4.092-0.574-8.334,0.321-12.704,0.305V78.259c0,0,0.008,0,0,0c-0.239,0-0.471,0.034-0.718,0.044l-0.008,11.709
	c-4.402,0.017-8.677-0.872-12.801-0.288l-0.009-13.341c-0.242,0.09-0.485-0.047-0.725,0.049l0.009,13.407
	c-4.335-0.072-8.157-1.368-11.93-0.23l0.008-13.671c-0.371,0.038-0.371-0.005-0.727,0.038L42.401,89.7
	C38.043,90.82,38.618,92.201,42.401,90.484z"/>
<radialGradient id="SVGID_6_" cx="-396.8193" cy="90.3164" r="12.9164" gradientTransform="matrix(-1 0 0 1 -293.5273 0)" gradientUnits="userSpaceOnUse">
	<stop  offset="0" style="stop-color:#762817"/>
	<stop  offset="1" style="stop-color:#551C1B"/>
</radialGradient>
<path fill="url(#SVGID_6_)" d="M99.57,91.199c3.817-1.437,6.054-12.519,2.154-17.292c10.972,1.174,10.61,20.217,8.237,25.333
	c-1.938,4.18-3.853,8.392-14.697,7.313C105.011,98.288,99.57,91.199,99.57,91.199z"/>
<radialGradient id="SVGID_7_" cx="35.8057" cy="90.3164" r="12.9166" gradientUnits="userSpaceOnUse">
	<stop  offset="0" style="stop-color:#762817"/>
	<stop  offset="1" style="stop-color:#551C1B"/>
</radialGradient>
<path fill="url(#SVGID_7_)" d="M39.527,91.199c-3.817-1.437-6.054-12.519-2.155-17.292c-10.971,1.174-10.609,20.217-8.236,25.333
	c1.938,4.18,3.853,8.392,14.698,7.313C34.086,98.288,39.527,91.199,39.527,91.199z"/>
<path fill="#711212" d="M55.667,117.472c0,0,14.215,4.23,29.993,0c0,0,0.643,0.473-0.691,1.112
	c-4.547,2.188-16.771,5.175-28.804,0.188C55.53,118.508,55.577,118.417,55.667,117.472z"/>
</svg>
