<?xml version="1.0" encoding="utf-8"?>
<!-- Generator: Adobe Illustrator 16.2.1, SVG Export Plug-In . SVG Version: 6.00 Build 0)  -->
<!DOCTYPE svg PUBLIC "-//W3C//DTD SVG 1.1//EN" "http://www.w3.org/Graphics/SVG/1.1/DTD/svg11.dtd">
<svg version="1.1" id="Layer_1" xmlns="http://www.w3.org/2000/svg" xmlns:xlink="http://www.w3.org/1999/xlink" x="0px" y="0px"
	 width="140px" height="140px" viewBox="0 0 140 140" enable-background="new 0 0 140 140" xml:space="preserve">
<radialGradient id="SVGID_1_" cx="-8308.1738" cy="-8195.4971" r="57.7837" gradientTransform="matrix(1.1627 0 0 -1.1627 9730.1367 -9458.4395)" gradientUnits="userSpaceOnUse">
	<stop  offset="0" style="stop-color:#F6F6CA"/>
	<stop  offset="0.2146" style="stop-color:#F7F2C5"/>
	<stop  offset="0.4376" style="stop-color:#F8EAB8"/>
	<stop  offset="0.6644" style="stop-color:#F9DEA4"/>
	<stop  offset="0.8926" style="stop-color:#FCCE89"/>
	<stop  offset="1" style="stop-color:#FDC57B"/>
</radialGradient>
<path fill="url(#SVGID_1_)" stroke="#E9B16C" stroke-width="2" stroke-miterlimit="10" d="M3.041,70.508
	c0,37.097,30.066,67.178,67.185,67.178c37.1,0,67.182-30.081,67.182-67.178c0-37.108-30.082-67.185-67.182-67.185
	C33.107,3.323,3.041,33.399,3.041,70.508z"/>
<path fill="#030303" d="M70.226,44.706c0,0,50.857,0,54.694,0c2.806,0,3.042-5.227,2.971-8.044c0,0,0.203-1.035,0.744-0.128
	l1.872,3.623c0,0,1.881,18.736-9.785,27.036c-11.661,8.306-33.882,6.744-40.314-2.11c-6.44-8.858-6.185-11.476-10.182-11.476
	c-3.999,0-3.75,2.617-10.188,11.476c-6.432,8.854-28.648,10.416-40.316,2.11C8.06,58.893,9.943,40.156,9.943,40.156l1.867-3.623
	c0.546-0.907,0.747,0.128,0.747,0.128c-0.072,2.817,0.167,8.044,2.968,8.044C19.359,44.706,70.226,44.706,70.226,44.706z"/>
<linearGradient id="SVGID_2_" gradientUnits="userSpaceOnUse" x1="-33.5986" y1="97.5332" x2="62.1336" y2="40.5925">
	<stop  offset="0" style="stop-color:#6B6B6B"/>
	<stop  offset="1" style="stop-color:#000000"/>
</linearGradient>
<path fill="url(#SVGID_2_)" d="M13.589,53.748c1.228,4.246,3.48,8.708,7.478,11.557c4.489,3.198,11.142,5.021,18.267,5.021
	c8.523,0,15.914-2.59,18.837-6.608c2.018-2.774,3.334-4.883,4.399-6.583c0,0,6.63-10.116-1.224-10.116H15.53
	C11.502,47.018,13.589,53.748,13.589,53.748z"/>
<linearGradient id="SVGID_3_" gradientUnits="userSpaceOnUse" x1="33.0996" y1="102.5801" x2="118.6105" y2="41.6655">
	<stop  offset="0" style="stop-color:#6B6B6B"/>
	<stop  offset="1" style="stop-color:#000000"/>
</linearGradient>
<path fill="url(#SVGID_3_)" d="M126.766,53.748c-1.23,4.246-3.476,8.708-7.478,11.557c-4.487,3.198-11.146,5.021-18.27,5.021
	c-8.521,0-15.914-2.59-18.837-6.608c-2.019-2.774-3.335-4.883-4.399-6.583c0,0-6.63-10.116,1.221-10.116h45.824
	C128.853,47.018,126.766,53.748,126.766,53.748z"/>
<g>
	<path fill="#7B4243" d="M71.95,114.76c12.379,1.703,24.607-6.919,28.625-17.807l0,0c0.401-1.099,1.676-1.666,2.838-1.263l0,0
		c1.163,0.399,1.782,1.62,1.373,2.718l0,0c-4.711,12.766-18.332,20.784-32.83,18.81l0,0c-0.432-0.06-0.862-0.126-1.277-0.202l0,0
		c-1.224-0.209-2.113-0.801-1.911-1.949l0.072-0.516"/>
	<path fill="#762817" d="M72.195,113.914c11.431,1.572,22.788-6.891,26.577-17.502l0,0c0.378-1.072,1.56-1.633,2.631-1.246l0,0
		c1.073,0.377,1.635,1.563,1.25,2.634l0,0c-4.438,12.44-17.081,20.326-30.471,18.503l0,0c-0.396-0.054-0.794-0.116-1.179-0.188l0,0
		c-1.128-0.194-1.946-0.764-1.753-1.882l0.072-0.503"/>
	<path fill="#762817" d="M69.929,115.836c-0.74-2.418-2.484,5.412-3.069,1.576c-0.575-3.828,4.351-7.582,4.449-6.088
		c0.097,1.498-1.457,2.543-1.457,2.543"/>
	<path fill="#762817" d="M99.25,95.657c2.153-0.491-4.448-2.522-0.274-3.36c4.167-0.822,8.042,5.453,6.418,5.615
		c-1.622,0.155-3.478-1.354-3.478-1.354"/>
</g>
</svg>
