<?xml version="1.0" encoding="utf-8"?>
<!-- Generator: Adobe Illustrator 16.2.1, SVG Export Plug-In . SVG Version: 6.00 Build 0)  -->
<!DOCTYPE svg PUBLIC "-//W3C//DTD SVG 1.1//EN" "http://www.w3.org/Graphics/SVG/1.1/DTD/svg11.dtd">
<svg version="1.1" id="Layer_1" xmlns="http://www.w3.org/2000/svg" xmlns:xlink="http://www.w3.org/1999/xlink" x="0px" y="0px"
	 width="140px" height="140px" viewBox="0 0 140 140" enable-background="new 0 0 140 140" xml:space="preserve">
<radialGradient id="SVGID_1_" cx="-8307.7324" cy="-8196.1504" r="57.7837" gradientTransform="matrix(1.1627 0 0 -1.1627 9729.1113 -9459.959)" gradientUnits="userSpaceOnUse">
	<stop  offset="0" style="stop-color:#F6F6CA"/>
	<stop  offset="0.2146" style="stop-color:#F7F2C5"/>
	<stop  offset="0.4376" style="stop-color:#F8EAB8"/>
	<stop  offset="0.6644" style="stop-color:#F9DEA4"/>
	<stop  offset="0.8926" style="stop-color:#FCCE89"/>
	<stop  offset="1" style="stop-color:#FDC57B"/>
</radialGradient>
<path fill="url(#SVGID_1_)" stroke="#E9B16C" stroke-width="2" stroke-miterlimit="10" d="M2.529,69.741
	c0,37.095,30.067,67.187,67.181,67.187c37.099,0,67.183-30.092,67.183-67.187c0-37.095-30.084-67.18-67.183-67.18
	C32.596,2.562,2.529,32.646,2.529,69.741z"/>
<radialGradient id="SVGID_2_" cx="69.1816" cy="124.1973" r="47.6291" gradientUnits="userSpaceOnUse">
	<stop  offset="0" style="stop-color:#3C1615"/>
	<stop  offset="0.1687" style="stop-color:#421816"/>
	<stop  offset="0.4492" style="stop-color:#541C19"/>
	<stop  offset="0.8047" style="stop-color:#731D1B"/>
	<stop  offset="1" style="stop-color:#881A1B"/>
</radialGradient>
<path fill="url(#SVGID_2_)" d="M113.278,76.115c0,26.561-19.284,48.082-43.068,48.082c-23.789,0-43.068-21.521-43.068-48.082
	H113.278z"/>
<linearGradient id="SVGID_3_" gradientUnits="userSpaceOnUse" x1="70.2104" y1="82.002" x2="70.2104" y2="63.7715">
	<stop  offset="0" style="stop-color:#FFFFFF"/>
	<stop  offset="0.0926" style="stop-color:#EAE8E8"/>
	<stop  offset="0.2466" style="stop-color:#C4C2C1"/>
	<stop  offset="0.4431" style="stop-color:#908D8D"/>
	<stop  offset="0.6744" style="stop-color:#565352"/>
	<stop  offset="0.9322" style="stop-color:#1A1919"/>
	<stop  offset="1" style="stop-color:#030303"/>
</linearGradient>
<path fill="url(#SVGID_3_)" d="M27.142,76.115c0,2.001,0.112,3.979,0.326,5.914c12.494,4.317,27.113,6.81,42.743,6.81
	c15.63,0,30.249-2.492,42.745-6.815c0.211-1.93,0.323-3.907,0.323-5.908H27.142z"/>
<radialGradient id="SVGID_4_" cx="69.4971" cy="97.0264" r="33.5637" gradientUnits="userSpaceOnUse">
	<stop  offset="0" style="stop-color:#E9292B"/>
	<stop  offset="0.1917" style="stop-color:#DA272A"/>
	<stop  offset="0.5102" style="stop-color:#BC2326"/>
	<stop  offset="0.9142" style="stop-color:#8F1B1E"/>
	<stop  offset="1" style="stop-color:#85191B"/>
</radialGradient>
<path fill="url(#SVGID_4_)" d="M70.21,124.197c12.614,0,23.956-6.055,31.829-15.695c-4.017-7.246-11.465-12.114-20.003-12.114
	c-4.32,0-8.36,1.253-11.824,3.429c-3.463-2.176-7.503-3.429-11.829-3.429c-8.53,0-15.979,4.868-20.01,12.117
	C46.251,118.143,57.599,124.197,70.21,124.197z"/>
<radialGradient id="SVGID_5_" cx="81.7832" cy="32.1597" r="42.8942" gradientUnits="userSpaceOnUse">
	<stop  offset="0" style="stop-color:#FFFFFF"/>
	<stop  offset="0.4247" style="stop-color:#FDFDFD"/>
	<stop  offset="0.5777" style="stop-color:#F6F6F6"/>
	<stop  offset="0.6868" style="stop-color:#EBEBEB"/>
	<stop  offset="0.7749" style="stop-color:#DADADA"/>
	<stop  offset="0.8505" style="stop-color:#C4C4C4"/>
	<stop  offset="0.9173" style="stop-color:#A8A8A8"/>
	<stop  offset="0.9763" style="stop-color:#898989"/>
	<stop  offset="1" style="stop-color:#7A7A7A"/>
</radialGradient>
<path fill="url(#SVGID_5_)" d="M72.572,48.416c0-11.817,9.579-21.396,21.396-21.396c11.821,0,21.405,9.579,21.405,21.396
	c0,11.815-9.584,21.405-21.405,21.405C82.151,69.82,72.572,60.23,72.572,48.416z"/>
<circle fill="#762817" cx="100.368" cy="59.369" r="5.142"/>
<radialGradient id="SVGID_6_" cx="1727.8809" cy="32.1597" r="42.8942" gradientTransform="matrix(-1 0 0 1 1786.7363 0)" gradientUnits="userSpaceOnUse">
	<stop  offset="0" style="stop-color:#FFFFFF"/>
	<stop  offset="0.4247" style="stop-color:#FDFDFD"/>
	<stop  offset="0.5777" style="stop-color:#F6F6F6"/>
	<stop  offset="0.6868" style="stop-color:#EBEBEB"/>
	<stop  offset="0.7749" style="stop-color:#DADADA"/>
	<stop  offset="0.8505" style="stop-color:#C4C4C4"/>
	<stop  offset="0.9173" style="stop-color:#A8A8A8"/>
	<stop  offset="0.9763" style="stop-color:#898989"/>
	<stop  offset="1" style="stop-color:#7A7A7A"/>
</radialGradient>
<path fill="url(#SVGID_6_)" d="M68.065,48.416c0-11.817-9.576-21.396-21.398-21.396c-11.816,0-21.402,9.579-21.402,21.396
	c0,11.815,9.586,21.405,21.402,21.405C58.489,69.82,68.065,60.23,68.065,48.416z"/>
<path fill="#762817" d="M48.609,38.113c0-2.838-2.3-5.135-5.139-5.135c-2.836,0-5.139,2.297-5.139,5.135
	c0,2.831,2.303,5.133,5.139,5.133C46.309,43.246,48.609,40.943,48.609,38.113z"/>
</svg>
