<?xml version="1.0" encoding="utf-8"?>
<!-- Generator: Adobe Illustrator 16.2.1, SVG Export Plug-In . SVG Version: 6.00 Build 0)  -->
<!DOCTYPE svg PUBLIC "-//W3C//DTD SVG 1.1//EN" "http://www.w3.org/Graphics/SVG/1.1/DTD/svg11.dtd">
<svg version="1.1" id="Layer_1" xmlns="http://www.w3.org/2000/svg" xmlns:xlink="http://www.w3.org/1999/xlink" x="0px" y="0px"
	 width="140px" height="140px" viewBox="0 0 140 140" enable-background="new 0 0 140 140" xml:space="preserve">
<radialGradient id="SVGID_1_" cx="70.5146" cy="70.0093" r="67.268" gradientUnits="userSpaceOnUse">
	<stop  offset="0" style="stop-color:#F6F6CA"/>
	<stop  offset="0.2146" style="stop-color:#F7F2C5"/>
	<stop  offset="0.4376" style="stop-color:#F8EAB8"/>
	<stop  offset="0.6644" style="stop-color:#F9DEA4"/>
	<stop  offset="0.8926" style="stop-color:#FCCE89"/>
	<stop  offset="1" style="stop-color:#FDC57B"/>
</radialGradient>
<path fill="url(#SVGID_1_)" stroke="#E9B16C" stroke-width="2" stroke-miterlimit="10" d="M137.614,70.012
	c0,37.24-30.048,67.434-67.101,67.434c-37.056,0-67.099-30.193-67.099-67.434c0-37.245,30.043-67.438,67.099-67.438
	C107.566,2.573,137.614,32.767,137.614,70.012z"/>
<path fill="#7B4243" d="M89.475,116.422c0,0-14.588-8.283-36.847,0C52.628,116.422,71.821,103.168,89.475,116.422z"/>
<path fill="#7B4243" d="M109.328,104.941c-3.918,5.588-10.926,5.528-16.342,1.944c-14.213-9.666-31.163-9.666-45.377,0
	c-5.412,3.584-12.42,3.646-16.343-1.944l0,0c-3.921-5.525-1.319-17.016,6.851-22.57c20.159-13.715,44.203-13.715,64.363,0
	C110.652,87.926,113.252,99.416,109.328,104.941L109.328,104.941z"/>
<path fill="#711212" d="M109.328,100.676c-3.918,5.565-10.926,5.505-16.342,1.937c-14.213-9.618-31.163-9.618-45.377,0
	c-5.412,3.568-12.42,3.629-16.343-1.937l0,0c-3.921-5.493-1.319-16.929,6.851-22.457c20.159-13.646,44.203-13.646,64.363,0
	C110.652,83.747,113.252,95.183,109.328,100.676L109.328,100.676z"/>
<radialGradient id="SVGID_2_" cx="70.2983" cy="88.5957" r="31.4753" gradientUnits="userSpaceOnUse">
	<stop  offset="0" style="stop-color:#FFFFFF"/>
	<stop  offset="0.3419" style="stop-color:#FCFCFC"/>
	<stop  offset="0.6008" style="stop-color:#F2F2F2"/>
	<stop  offset="0.8316" style="stop-color:#E2E2E2"/>
	<stop  offset="1" style="stop-color:#D1D1D1"/>
</radialGradient>
<path fill="url(#SVGID_2_)" d="M109.328,102.101c-3.918,5.313-10.926,5.26-16.342,1.85c-14.213-9.195-31.163-9.195-45.377,0
	c-5.412,3.41-12.42,3.466-16.343-1.85l0,0c-3.921-5.252-1.319-16.181,6.851-21.463c20.159-13.036,44.203-13.036,64.363,0
	C110.652,85.92,113.252,96.849,109.328,102.101L109.328,102.101z"/>
<radialGradient id="SVGID_3_" cx="38.0386" cy="94.7324" r="10.1813" gradientUnits="userSpaceOnUse">
	<stop  offset="0" style="stop-color:#762817"/>
	<stop  offset="1" style="stop-color:#551C1B"/>
</radialGradient>
<path fill="url(#SVGID_3_)" d="M44.516,102.883c-5.438-3.035-3.626-10.934-3.626-10.934c-3.818-1.438-5.369-6.656-5.854-8.791
	c-5.676,5.711-7.142,14.422-3.77,18.942c3.686,4.997,10.087,5.208,15.336,2.385C46.12,103.946,45.449,103.407,44.516,102.883z"/>
<radialGradient id="SVGID_4_" cx="102.8721" cy="95.0391" r="10.1813" gradientUnits="userSpaceOnUse">
	<stop  offset="0" style="stop-color:#762817"/>
	<stop  offset="1" style="stop-color:#551C1B"/>
</radialGradient>
<path fill="url(#SVGID_4_)" d="M96.396,103.189c5.438-3.035,3.623-10.934,3.623-10.934c3.818-1.438,5.369-6.656,5.853-8.791
	c5.678,5.711,7.147,14.422,3.772,18.941c-3.686,4.998-10.086,5.209-15.336,2.386C94.791,104.253,95.463,103.714,96.396,103.189z"/>
<path fill="#711212" d="M89.475,116.422c0,0-14.588-10.818-36.847,0C52.628,116.422,71.821,99.108,89.475,116.422z"/>
<linearGradient id="SVGID_5_" gradientUnits="userSpaceOnUse" x1="-600.6846" y1="5.6562" x2="-537.3656" y2="5.6562" gradientTransform="matrix(-1 0 0 -1 -498.7373 92.5859)">
	<stop  offset="0" style="stop-color:#424242"/>
	<stop  offset="0.005" style="stop-color:#4A4A4A"/>
	<stop  offset="0.0308" style="stop-color:#6F6F6F"/>
	<stop  offset="0.0598" style="stop-color:#8F8F8F"/>
	<stop  offset="0.0919" style="stop-color:#AAAAAA"/>
	<stop  offset="0.1282" style="stop-color:#C0C0C0"/>
	<stop  offset="0.1705" style="stop-color:#D1D1D1"/>
	<stop  offset="0.2228" style="stop-color:#DDDDDD"/>
	<stop  offset="0.2962" style="stop-color:#E4E4E4"/>
	<stop  offset="0.5" style="stop-color:#E6E6E6"/>
	<stop  offset="0.7072" style="stop-color:#E4E4E4"/>
	<stop  offset="0.7818" style="stop-color:#DDDDDD"/>
	<stop  offset="0.835" style="stop-color:#D1D1D1"/>
	<stop  offset="0.878" style="stop-color:#C0C0C0"/>
	<stop  offset="0.9148" style="stop-color:#AAAAAA"/>
	<stop  offset="0.9474" style="stop-color:#8F8F8F"/>
	<stop  offset="0.9762" style="stop-color:#6F6F6F"/>
	<stop  offset="1" style="stop-color:#4F4F4F"/>
</linearGradient>
<path fill="url(#SVGID_5_)" d="M40.89,91.949c0.618-0.141,1.507,0.038,3.032-0.205l0.065-14.481
	c0.234-0.211,0.478-0.152,0.717-0.357l-0.056,14.626c3.773-1.138,7.761-1.638,11.931-2.263l0.036-16.725
	c0.241-0.096,0.431-0.073,0.673-0.163l0.016,16.378c4.124-0.583,8.399-0.92,12.8-0.937V70.861c0.247-0.01,0.689,0.001,0.689,0.001
	l0.037,16.96c4.37,0.017,8.61,0.346,12.704,0.92L83.518,72.43c0.248,0.086,0.482,0.093,0.725,0.179l0.013,16.621
	c4.172,0.619,8.177,1.274,11.948,2.41l-0.029-14.597c0.242,0.198,0.482,0.158,0.72,0.363l0.021,14.311
	c2.199-0.267,3.105,0.062,3.105,0.232l0.123,0.688c-1.664-0.156-1.311-0.446-3.229-0.145v10.071
	c-0.237-0.057-0.477,0.491-0.719,0.434l0.008-10.577c-3.762-1.152-7.771-1.82-11.948-2.453l0.004,9.6
	c-0.243-0.027-0.478-0.231-0.724-0.259V89.48c-4.088-0.581-8.328-0.92-12.704-0.941v8.519c-0.241,0-0.48-0.004-0.727-0.004v-8.515
	c-4.414,0.025-8.683,0.37-12.8,0.96v9.726c-0.239,0.031-0.485,0.222-0.725,0.255v-9.475c-4.179,0.639-8.167,1.146-11.931,2.302
	v10.652c-0.24,0.061-0.484-0.51-0.727-0.447v-9.983c-2.55,0.149-2.154,0.113-3.16,0.151L40.89,91.949z"/>
<linearGradient id="SVGID_6_" gradientUnits="userSpaceOnUse" x1="44.3267" y1="32.6162" x2="44.3267" y2="46.5894">
	<stop  offset="0" style="stop-color:#954A2B"/>
	<stop  offset="1" style="stop-color:#6C2511"/>
</linearGradient>
<path fill="url(#SVGID_6_)" d="M45.059,43.63c7.203,0,13.646,3.002,17.936,7.71c-1.27-8.399-9.093-14.876-18.583-14.876
	c-10.146,0-18.394,7.4-18.752,16.646C29.865,47.393,36.981,43.63,45.059,43.63z"/>
<linearGradient id="SVGID_7_" gradientUnits="userSpaceOnUse" x1="278.3115" y1="32.6167" x2="278.3115" y2="46.5899" gradientTransform="matrix(-1 0 0 1 374.582 0)">
	<stop  offset="0" style="stop-color:#954A2B"/>
	<stop  offset="1" style="stop-color:#6C2511"/>
</linearGradient>
<path fill="url(#SVGID_7_)" d="M95.539,43.63c-7.201,0-13.647,3.002-17.937,7.71c1.271-8.399,9.095-14.876,18.585-14.876
	c10.145,0,18.396,7.4,18.751,16.646C110.733,47.393,103.617,43.63,95.539,43.63z"/>
<path fill="#711212" d="M51.966,22.274c0,0,17.462,5.196,36.847,0c0,0,0.789,0.58-0.85,1.366c-5.586,2.687-20.603,6.357-35.385,0.23
	C51.798,23.548,51.855,23.436,51.966,22.274z"/>
<path fill="#7B4243" d="M55.404,17.219c0,0,14.215,4.229,29.993,0c0,0,0.644,0.472-0.69,1.112
	c-4.547,2.187-16.771,5.175-28.804,0.188C55.268,18.255,55.314,18.164,55.404,17.219z"/>
</svg>
