<?xml version="1.0" encoding="utf-8"?>
<!-- Generator: Adobe Illustrator 16.2.1, SVG Export Plug-In . SVG Version: 6.00 Build 0)  -->
<!DOCTYPE svg PUBLIC "-//W3C//DTD SVG 1.1//EN" "http://www.w3.org/Graphics/SVG/1.1/DTD/svg11.dtd">
<svg version="1.1" id="Layer_1" xmlns="http://www.w3.org/2000/svg" xmlns:xlink="http://www.w3.org/1999/xlink" x="0px" y="0px"
	 width="140px" height="140px" viewBox="0 0 140 140" enable-background="new 0 0 140 140" xml:space="preserve">
<radialGradient id="SVGID_1_" cx="-8308.2686" cy="-8196.0928" r="57.7866" gradientTransform="matrix(1.1627 0 0 -1.1627 9730.3555 -9459.8242)" gradientUnits="userSpaceOnUse">
	<stop  offset="0" style="stop-color:#F6F6CA"/>
	<stop  offset="0.2146" style="stop-color:#F7F2C5"/>
	<stop  offset="0.4376" style="stop-color:#F8EAB8"/>
	<stop  offset="0.6644" style="stop-color:#F9DEA4"/>
	<stop  offset="0.8926" style="stop-color:#FCCE89"/>
	<stop  offset="1" style="stop-color:#FDC57B"/>
</radialGradient>
<path fill="url(#SVGID_1_)" stroke="#E9B16C" stroke-width="2" stroke-miterlimit="10" d="M3.148,69.811
	c0,37.095,30.068,67.186,67.183,67.186c37.101,0,67.189-30.091,67.189-67.186c0-37.104-30.088-67.185-67.189-67.185
	C33.217,2.625,3.148,32.707,3.148,69.811z"/>
<g>
	<path fill="#7B4243" d="M74.727,110.572c11.479,1.144,22.513-7.736,25.902-18.482l0,0c0.34-1.085,1.5-1.688,2.583-1.346l0,0
		c1.086,0.34,1.691,1.503,1.347,2.588l0,0c-3.969,12.597-16.31,20.949-29.756,19.629l0,0c-0.4-0.041-0.799-0.089-1.186-0.145l0,0
		c-1.137-0.152-1.975-0.691-1.82-1.816l0.05-0.505"/>
	<path fill="#762817" d="M73.757,109.84c11.479,1.144,22.515-7.738,25.902-18.482l0,0c0.34-1.085,1.501-1.69,2.583-1.346l0,0
		c1.087,0.34,1.692,1.504,1.348,2.588l0,0c-3.969,12.597-16.311,20.947-29.757,19.629l0,0c-0.399-0.041-0.797-0.089-1.185-0.145l0,0
		c-1.136-0.152-1.975-0.691-1.821-1.816l0.05-0.505"/>
	<path fill="#762817" d="M71.562,111.843c-0.83-2.386-2.281,5.503-3.008,1.692c-0.718-3.806,4.064-7.74,4.22-6.25
		c0.151,1.492-1.362,2.596-1.362,2.596"/>
	<path fill="#762817" d="M101.447,91.104c2.604-1.105-5.877-2.875-1.736-3.865c4.134-0.979,8.239,5.148,6.623,5.371
		c-1.615,0.215-2.762-1.727-2.762-1.727"/>
</g>
<radialGradient id="SVGID_2_" cx="2208.0957" cy="-458.9995" r="42.8949" gradientTransform="matrix(-1.123324e-08 0.942 0.7329 8.740035e-09 416.8208 -2040.7305)" gradientUnits="userSpaceOnUse">
	<stop  offset="0" style="stop-color:#FFFFFF"/>
	<stop  offset="0.4247" style="stop-color:#FDFDFD"/>
	<stop  offset="0.5777" style="stop-color:#F6F6F6"/>
	<stop  offset="0.6868" style="stop-color:#EBEBEB"/>
	<stop  offset="0.7749" style="stop-color:#DADADA"/>
	<stop  offset="0.8505" style="stop-color:#C4C4C4"/>
	<stop  offset="0.9173" style="stop-color:#A8A8A8"/>
	<stop  offset="0.9763" style="stop-color:#898989"/>
	<stop  offset="1" style="stop-color:#7A7A7A"/>
</radialGradient>
<path fill="url(#SVGID_2_)" d="M92.322,30.618c-8.658,0-15.681,9.021-15.681,20.157c0,11.132,7.022,20.163,15.681,20.163
	c8.661,0,15.689-9.031,15.689-20.163C108.012,39.639,100.983,30.618,92.322,30.618z"/>
<radialGradient id="SVGID_3_" cx="92.3262" cy="50.6406" r="9.7498" gradientUnits="userSpaceOnUse">
	<stop  offset="0" style="stop-color:#762817"/>
	<stop  offset="1" style="stop-color:#551C1B"/>
</radialGradient>
<path fill="url(#SVGID_3_)" d="M82.575,50.64c0-5.383,4.366-9.747,9.753-9.747c5.377,0,9.75,4.363,9.75,9.747
	c0,5.383-4.373,9.749-9.75,9.749C86.941,60.388,82.575,56.022,82.575,50.64z"/>
<radialGradient id="SVGID_4_" cx="2259.7852" cy="-453.5396" r="42.8944" gradientTransform="matrix(-1.123324e-08 0.942 0.7329 8.740035e-09 366.1265 -2089.4229)" gradientUnits="userSpaceOnUse">
	<stop  offset="0" style="stop-color:#FFFFFF"/>
	<stop  offset="0.4247" style="stop-color:#FDFDFD"/>
	<stop  offset="0.5777" style="stop-color:#F6F6F6"/>
	<stop  offset="0.6868" style="stop-color:#EBEBEB"/>
	<stop  offset="0.7749" style="stop-color:#DADADA"/>
	<stop  offset="0.8505" style="stop-color:#C4C4C4"/>
	<stop  offset="0.9173" style="stop-color:#A8A8A8"/>
	<stop  offset="0.9763" style="stop-color:#898989"/>
	<stop  offset="1" style="stop-color:#7A7A7A"/>
</radialGradient>
<path fill="url(#SVGID_4_)" d="M45.63,30.618c-8.66,0-15.681,9.021-15.681,20.156c0,11.133,7.021,20.163,15.681,20.163
	c8.659,0,15.688-9.03,15.688-20.163C61.317,39.639,54.289,30.618,45.63,30.618z"/>
<radialGradient id="SVGID_5_" cx="45.6328" cy="50.6416" r="9.7488" gradientUnits="userSpaceOnUse">
	<stop  offset="0" style="stop-color:#762817"/>
	<stop  offset="1" style="stop-color:#551C1B"/>
</radialGradient>
<path fill="url(#SVGID_5_)" d="M35.882,50.642c0-5.383,4.366-9.746,9.753-9.746c5.375,0,9.749,4.363,9.749,9.746
	c0,5.381-4.373,9.747-9.749,9.747C40.248,60.388,35.882,56.022,35.882,50.642z"/>
</svg>
