<?xml version="1.0" encoding="utf-8"?>
<!-- Generator: Adobe Illustrator 16.2.1, SVG Export Plug-In . SVG Version: 6.00 Build 0)  -->
<!DOCTYPE svg PUBLIC "-//W3C//DTD SVG 1.1//EN" "http://www.w3.org/Graphics/SVG/1.1/DTD/svg11.dtd">
<svg version="1.1" id="Layer_1" xmlns="http://www.w3.org/2000/svg" xmlns:xlink="http://www.w3.org/1999/xlink" x="0px" y="0px"
	 width="140px" height="140px" viewBox="0 0 140 140" enable-background="new 0 0 140 140" xml:space="preserve">
<radialGradient id="SVGID_1_" cx="-8308.1494" cy="-8195.7148" r="57.7854" gradientTransform="matrix(1.1627 0 0 -1.1627 9730.0781 -9458.9453)" gradientUnits="userSpaceOnUse">
	<stop  offset="0" style="stop-color:#F6F6CA"/>
	<stop  offset="0.2146" style="stop-color:#F7F2C5"/>
	<stop  offset="0.4376" style="stop-color:#F8EAB8"/>
	<stop  offset="0.6644" style="stop-color:#F9DEA4"/>
	<stop  offset="0.8926" style="stop-color:#FCCE89"/>
	<stop  offset="1" style="stop-color:#FDC57B"/>
</radialGradient>
<path fill="url(#SVGID_1_)" stroke="#E9B16C" stroke-width="2" stroke-miterlimit="10" d="M3.012,70.251
	c0,37.096,30.064,67.183,67.181,67.183c37.105,0,67.188-30.087,67.188-67.183c0-37.106-30.082-67.185-67.188-67.185
	C33.076,3.066,3.012,33.146,3.012,70.251z"/>
<g>
	<path fill="#762817" d="M117.306,71.293c0,30.462-20.617,55.16-46.041,55.16c-25.436,0-46.044-24.698-46.044-55.16
		C25.221,71.293,66.427,94.589,117.306,71.293z"/>
	<linearGradient id="SVGID_2_" gradientUnits="userSpaceOnUse" x1="114.1465" y1="99.6904" x2="28.8371" y2="99.6904">
		<stop  offset="0" style="stop-color:#D6D6D6"/>
		<stop  offset="0.0667" style="stop-color:#E3E3E3"/>
		<stop  offset="0.1831" style="stop-color:#F3F3F3"/>
		<stop  offset="0.316" style="stop-color:#FCFCFC"/>
		<stop  offset="0.5" style="stop-color:#FFFFFF"/>
		<stop  offset="0.6793" style="stop-color:#FCFCFC"/>
		<stop  offset="0.815" style="stop-color:#F2F2F2"/>
		<stop  offset="0.9359" style="stop-color:#E2E2E2"/>
		<stop  offset="1" style="stop-color:#D6D6D6"/>
	</linearGradient>
	<path fill="url(#SVGID_2_)" d="M114.146,75.689c0,26.508-19.255,48.002-42.998,48.002c-23.752,0-42.999-21.494-42.999-48.002
		C28.149,75.689,66.626,95.963,114.146,75.689z"/>
	<linearGradient id="SVGID_3_" gradientUnits="userSpaceOnUse" x1="27.9341" y1="100.8789" x2="114.6476" y2="100.8789">
		<stop  offset="0" style="stop-color:#424242"/>
		<stop  offset="0.005" style="stop-color:#4A4A4A"/>
		<stop  offset="0.0308" style="stop-color:#6F6F6F"/>
		<stop  offset="0.0598" style="stop-color:#8F8F8F"/>
		<stop  offset="0.0919" style="stop-color:#AAAAAA"/>
		<stop  offset="0.1282" style="stop-color:#C0C0C0"/>
		<stop  offset="0.1705" style="stop-color:#D1D1D1"/>
		<stop  offset="0.2228" style="stop-color:#DDDDDD"/>
		<stop  offset="0.2962" style="stop-color:#E4E4E4"/>
		<stop  offset="0.5" style="stop-color:#E6E6E6"/>
		<stop  offset="0.7072" style="stop-color:#E4E4E4"/>
		<stop  offset="0.7818" style="stop-color:#DDDDDD"/>
		<stop  offset="0.835" style="stop-color:#D1D1D1"/>
		<stop  offset="0.878" style="stop-color:#C0C0C0"/>
		<stop  offset="0.9148" style="stop-color:#AAAAAA"/>
		<stop  offset="0.9474" style="stop-color:#8F8F8F"/>
		<stop  offset="0.9762" style="stop-color:#6F6F6F"/>
		<stop  offset="1" style="stop-color:#4F4F4F"/>
	</linearGradient>
	<path fill="url(#SVGID_3_)" d="M111.38,92.555c0.117-0.353,0.239-0.704,0.346-1.057c-1.083,0.64-2.16,1.286-3.325,1.872V78.006
		c-0.241,0.09-0.485,0.168-0.73,0.257v15.442c-2.978,1.468-6.199,2.748-9.621,3.83V81.238c-0.241,0.062-0.487,0.133-0.727,0.195
		v16.322c-3.765,1.155-7.752,2.058-11.932,2.697V83.748c-0.239,0.034-0.484,0.077-0.724,0.108v16.706
		c-4.118,0.592-8.388,0.936-12.802,0.963V84.742c-0.245,0-0.485,0-0.726,0v16.783c-4.377-0.024-8.616-0.361-12.704-0.943V84.051
		c-0.245-0.027-0.483-0.061-0.728-0.09v16.506c-4.177-0.632-8.169-1.536-11.932-2.688V81.836c-0.242-0.057-0.482-0.112-0.721-0.17
		v15.902c-3.423-1.082-6.646-2.362-9.634-3.817V78.782c-0.246-0.084-0.488-0.173-0.721-0.257v14.893
		c-1.503-0.756-2.925-1.57-4.296-2.417c0.107,0.364,0.237,0.718,0.35,1.072c1.273,0.759,2.57,1.501,3.946,2.183v6.879
		c0.244,0.438,0.46,0.893,0.721,1.318v-7.867c2.994,1.441,6.219,2.697,9.634,3.761v15.495c0.238,0.203,0.479,0.402,0.721,0.601
		V98.56c3.771,1.137,7.761,2.027,11.932,2.645v20.122c0.244,0.086,0.479,0.201,0.728,0.287v-20.292
		c4.093,0.572,8.334,0.902,12.704,0.919v21.511c0,0,0,0,0.009,0c0.239,0,0.472-0.036,0.717-0.046V102.24
		c4.401-0.017,8.678-0.354,12.802-0.936v19.988c0.24-0.092,0.484-0.201,0.724-0.299v-19.805c4.17-0.627,8.157-1.52,11.932-2.658
		v15.234c0.239-0.203,0.491-0.393,0.727-0.604V98.318c3.409-1.07,6.629-2.332,9.621-3.773v6.437c0.247-0.442,0.497-0.88,0.73-1.333
		v-5.438C109.438,93.693,110.398,93.119,111.38,92.555z"/>
</g>
<linearGradient id="SVGID_4_" gradientUnits="userSpaceOnUse" x1="49.2578" y1="23.8755" x2="49.2578" y2="43.3177">
	<stop  offset="0" style="stop-color:#954A2B"/>
	<stop  offset="1" style="stop-color:#6C2511"/>
</linearGradient>
<path fill="url(#SVGID_4_)" d="M58.923,46.559c0,7.604-4.328,13.771-9.668,13.771c-5.335,0-9.662-6.167-9.662-13.771
	c0-7.606,4.327-13.772,9.662-13.772C54.595,32.786,58.923,38.952,58.923,46.559z"/>
<linearGradient id="SVGID_5_" gradientUnits="userSpaceOnUse" x1="91.1348" y1="23.8755" x2="91.1348" y2="43.3177">
	<stop  offset="0" style="stop-color:#954A2B"/>
	<stop  offset="1" style="stop-color:#6C2511"/>
</linearGradient>
<ellipse fill="url(#SVGID_5_)" cx="91.135" cy="46.559" rx="9.664" ry="13.771"/>
</svg>
