<svg version="1.1" xmlns="http://www.w3.org/2000/svg" xmlns:xlink="http://www.w3.org/1999/xlink" x="0px" y="0px"
	 width="140px" height="140px" viewBox="0 0 140 140" enable-background="new 0 0 140 140" xml:space="preserve">
<radialGradient id="SVGID_1_" cx="70.5249" cy="70.0166" r="67.2685" gradientUnits="userSpaceOnUse">
	<stop  offset="0" style="stop-color:#F5F6CB"/>
	<stop  offset="0.2146" style="stop-color:#F6F2C6"/>
	<stop  offset="0.4376" style="stop-color:#F7EAB9"/>
	<stop  offset="0.6644" style="stop-color:#F8DEA5"/>
	<stop  offset="0.8926" style="stop-color:#FBCE8A"/>
	<stop  offset="1" style="stop-color:#FCC57C"/>
</radialGradient>
<path fill="url(#SVGID_1_)" stroke="#E8B06C" stroke-width="2" stroke-miterlimit="10" d="M137.625,70.016
	c0,37.243-30.048,67.437-67.102,67.437c-37.055,0-67.099-30.194-67.099-67.437c0-37.245,30.044-67.437,67.099-67.437
	C107.577,2.58,137.625,32.771,137.625,70.016z"/>
<linearGradient id="SVGID_2_" gradientUnits="userSpaceOnUse" x1="48.8335" y1="26.8843" x2="48.8335" y2="46.3236">
	<stop  offset="0" style="stop-color:#944B2A"/>
	<stop  offset="1" style="stop-color:#6B2613"/>
</linearGradient>
<ellipse fill="url(#SVGID_2_)" cx="48.833" cy="49.563" rx="9.665" ry="13.77"/>
<linearGradient id="SVGID_3_" gradientUnits="userSpaceOnUse" x1="90.7129" y1="26.8843" x2="90.7129" y2="46.3236">
	<stop  offset="0" style="stop-color:#944B2A"/>
	<stop  offset="1" style="stop-color:#6B2613"/>
</linearGradient>
<path fill="url(#SVGID_3_)" d="M100.378,49.563c0,7.605-4.33,13.77-9.67,13.77c-5.335,0-9.661-6.165-9.661-13.77
	s4.326-13.77,9.661-13.77C96.048,35.794,100.378,41.958,100.378,49.563z"/>
<path fill="#7C4344" d="M26.956,92.822c9.25,3.438,23.17-1.136,42.93-1.139l0,0c19.756,0.003,39.57,4.201,46.32-0.299l0.125,3.125
	c-9.5,4.5-25.652,0.583-46.445,0.586l0,0c-20.801-0.003-31.43,4.664-44.055,0.477L26.956,92.822z"/>
<path fill="#7C4344" d="M26.956,96.156c9.25,3.438,23.17-1.136,42.93-1.139l0,0c19.756,0.003,39.57,4.201,46.32-0.299l0.125,3.125
	c-9.5,4.5-25.652,0.583-46.445,0.586l0,0c-20.801-0.003-31.43,4.664-44.055,0.477L26.956,96.156z"/>
<path fill="#711312" d="M26.956,94.656c9.25,3.438,23.17-1.136,42.93-1.139l0,0c19.756,0.003,39.57,4.201,46.32-0.299l0.125,3.125
	c-9.5,4.5-25.652,0.583-46.445,0.586l0,0c-20.801-0.003-31.43,4.664-44.055,0.477L26.956,94.656z"/>
</svg>
