<?xml version="1.0" encoding="utf-8"?>
<!-- Generator: Adobe Illustrator 16.2.1, SVG Export Plug-In . SVG Version: 6.00 Build 0)  -->
<!DOCTYPE svg PUBLIC "-//W3C//DTD SVG 1.1//EN" "http://www.w3.org/Graphics/SVG/1.1/DTD/svg11.dtd">
<svg version="1.1" id="Layer_1" xmlns="http://www.w3.org/2000/svg" xmlns:xlink="http://www.w3.org/1999/xlink" x="0px" y="0px"
	 width="140px" height="140px" viewBox="0 0 140 140" enable-background="new 0 0 140 140" xml:space="preserve">
<radialGradient id="SVGID_1_" cx="86.3906" cy="45.2686" r="99.4813" gradientUnits="userSpaceOnUse">
	<stop  offset="0" style="stop-color:#F6F6CA"/>
	<stop  offset="0.2146" style="stop-color:#F7F2C5"/>
	<stop  offset="0.4376" style="stop-color:#F8EAB8"/>
	<stop  offset="0.6644" style="stop-color:#F9DEA4"/>
	<stop  offset="0.8926" style="stop-color:#FCCE89"/>
	<stop  offset="1" style="stop-color:#FDC57B"/>
</radialGradient>
<circle fill="url(#SVGID_1_)" stroke="#E9B16C" stroke-width="2" stroke-miterlimit="10" cx="70.414" cy="70.274" r="67.262"/>
<radialGradient id="SVGID_2_" cx="72.5625" cy="46.7822" r="14.243" gradientUnits="userSpaceOnUse">
	<stop  offset="0" style="stop-color:#762817"/>
	<stop  offset="1" style="stop-color:#551C1B"/>
</radialGradient>
<path fill="url(#SVGID_2_)" d="M67.635,29.394c-8.65,1.876-5.665,26.917,3.992,33.492c7.086,4.823,12.833-3.861,10.419-15.749
	C79.833,36.206,72.352,28.491,67.635,29.394z"/>
<path fill="#FFFFFF" d="M76.632,47.73c-2.573,0.718-2.691,6-0.178,8.078c2.216,1.826,4.508-0.641,3.895-4.201
	C79.917,49.099,78.215,47.321,76.632,47.73z"/>
<radialGradient id="SVGID_3_" cx="103.4404" cy="40.1377" r="12.7862" gradientUnits="userSpaceOnUse">
	<stop  offset="0" style="stop-color:#762817"/>
	<stop  offset="1" style="stop-color:#551C1B"/>
</radialGradient>
<path fill="url(#SVGID_3_)" d="M96.164,25.081c-6.384,2.875,1.021,24.998,9.91,29.591c6.522,3.368,9.269-5.23,4.974-15.599
	C107.099,29.54,99.681,23.625,96.164,25.081z"/>
<path fill="#FFFFFF" d="M107.345,41.84c-2.066,0.845-1.646,5.242,0.639,6.719c2.015,1.304,3.684-0.972,2.826-3.863
	C110.205,42.654,108.621,41.344,107.345,41.84z"/>
<path fill="#7B4243" d="M120.686,97.469c-0.088,0.231-13.477,23.039-39.056,22.194c-18.14-0.601-36.717-15.347-41.043-24.837
	c-0.05-0.11-0.041,0.111,0,0c-0.982,2.668,0.089,4.7-1.667,6.957c-3.696-0.299-5.405-7.783-1.222-11.49
	c0.331-0.295,0.823-0.625,1.19-0.871c3.15-1.695,4.183-2.873,4.244,0.414c-0.413,1.137-0.229,1.914,0.441,2.8
	c0.08,0.106-0.048,0.304-0.069,0.433c18.646,25.51,55.075,32.293,75.923,3.184c0.646-0.543,0.695-0.523,1.285-0.294
	C120.924,96.494,120.987,96.656,120.686,97.469z"/>
<path fill="#762817" d="M120.873,95.83c-0.087,0.232-13.477,23.039-39.056,22.194c-18.139-0.601-36.716-15.347-41.042-24.837
	c-0.051-0.11-0.104-0.264-0.15-0.373c-2.089,2.156-0.429,5.387-2.185,7.645c-3.697-0.299-4.738-8.098-0.555-11.805
	c0.332-0.295,0.824-0.625,1.191-0.871c3.149-1.695,7.769-2.063,7.83,1.223c-0.413,1.137-0.994,1.318-3.146,1.991
	c-0.021,0.132-0.048,0.304-0.069,0.434c18.646,25.51,55.076,32.293,75.923,3.183c0.646-0.543,0.695-0.523,1.285-0.294
	C121.111,94.855,121.175,95.019,120.873,95.83z"/>
</svg>
