<?xml version="1.0" encoding="utf-8"?>
<!-- Generator: Adobe Illustrator 16.2.1, SVG Export Plug-In . SVG Version: 6.00 Build 0)  -->
<!DOCTYPE svg PUBLIC "-//W3C//DTD SVG 1.1//EN" "http://www.w3.org/Graphics/SVG/1.1/DTD/svg11.dtd">
<svg version="1.1" id="Layer_1" xmlns="http://www.w3.org/2000/svg" xmlns:xlink="http://www.w3.org/1999/xlink" x="0px" y="0px"
	 width="140px" height="140px" viewBox="0 0 140 140" enable-background="new 0 0 140 140" xml:space="preserve">
<g>
	
		<radialGradient id="SVGID_1_" cx="-8307.7129" cy="-8196.3164" r="57.7849" gradientTransform="matrix(1.1627 0 0 -1.1627 9729.0645 -9460.3438)" gradientUnits="userSpaceOnUse">
		<stop  offset="0" style="stop-color:#F6F6CA"/>
		<stop  offset="0.2146" style="stop-color:#F7F2C5"/>
		<stop  offset="0.4376" style="stop-color:#F8EAB8"/>
		<stop  offset="0.6644" style="stop-color:#F9DEA4"/>
		<stop  offset="0.8926" style="stop-color:#FCCE89"/>
		<stop  offset="1" style="stop-color:#FDC57B"/>
	</radialGradient>
	<path fill="url(#SVGID_1_)" stroke="#E9B16C" stroke-width="2" stroke-miterlimit="10" d="M2.505,69.55
		c0,37.094,30.07,67.186,67.19,67.186c37.092,0,67.176-30.092,67.176-67.186c0-37.106-30.084-67.183-67.176-67.183
		C32.575,2.368,2.505,32.444,2.505,69.55z"/>
	<ellipse fill="#762817" cx="52.548" cy="49.694" rx="6.381" ry="15.192"/>
	<path fill="#762817" d="M80.504,49.694c0-8.39,2.851-15.192,6.384-15.192c3.516,0,6.381,6.802,6.381,15.192
		c0,8.391-2.865,15.193-6.381,15.193C83.354,64.888,80.504,58.085,80.504,49.694z"/>
	<path fill="#FFFFFF" d="M106.187,96.949l-4.476-12.904L73.07,93.988l15.127,9.21L106.187,96.949z M36.777,106.588l4.485,12.908
		l26.767-9.295l-15.132-9.207L36.777,106.588z M87.254,104.271l-0.778-0.474L71.35,94.586l-0.78-0.474l-0.775-0.474l-18.66-11.357
		l-7.102,11.668l9.031,5.498l0.775,0.475l0.78,0.471l15.131,9.211l0.778,0.474l0.777,0.474l17.985,10.945l7.099-11.67l-8.36-5.084
		L87.254,104.271z"/>
	<path fill="#762817" d="M107.977,97.815l-5.397-15.558L71.515,93.043L50.669,80.35l-8.568,14.072l9.239,5.624l-16.343,5.673
		l5.397,15.564l29.19-10.137l20.175,12.279l8.562-14.069l-8.566-5.213L107.977,97.815z M71.306,110.551l-0.777-0.474l-0.778-0.474
		l-15.131-9.211l-0.78-0.471l-0.775-0.475l-9.031-5.498l7.102-11.668l18.66,11.357l0.775,0.474l0.78,0.474l15.126,9.211l0.778,0.474
		l0.775,0.472l8.36,5.084l-7.099,11.67L71.306,110.551z M41.263,119.496l-4.485-12.908l16.12-5.594l15.132,9.207L41.263,119.496z
		 M73.07,93.988l28.641-9.943l4.476,12.904l-17.989,6.249L73.07,93.988z"/>
</g>
</svg>
