<?xml version="1.0" encoding="utf-8"?>
<!-- Generator: Adobe Illustrator 16.2.1, SVG Export Plug-In . SVG Version: 6.00 Build 0)  -->
<!DOCTYPE svg PUBLIC "-//W3C//DTD SVG 1.1//EN" "http://www.w3.org/Graphics/SVG/1.1/DTD/svg11.dtd">
<svg version="1.1" id="Layer_1" xmlns="http://www.w3.org/2000/svg" xmlns:xlink="http://www.w3.org/1999/xlink" x="0px" y="0px"
	 width="140px" height="140px" viewBox="0 0 140 140" enable-background="new 0 0 140 140" xml:space="preserve">
<g>
	
		<radialGradient id="SVGID_1_" cx="-8308.0498" cy="-8195.9014" r="57.7847" gradientTransform="matrix(1.1627 0 0 -1.1627 9729.8457 -9459.3789)" gradientUnits="userSpaceOnUse">
		<stop  offset="0" style="stop-color:#F6F6CA"/>
		<stop  offset="0.2146" style="stop-color:#F7F2C5"/>
		<stop  offset="0.4376" style="stop-color:#F8EAB8"/>
		<stop  offset="0.6644" style="stop-color:#F9DEA4"/>
		<stop  offset="0.8926" style="stop-color:#FCCE89"/>
		<stop  offset="1" style="stop-color:#FDC57B"/>
	</radialGradient>
	<path fill="url(#SVGID_1_)" stroke="#E9B16C" stroke-width="2" stroke-miterlimit="10" d="M2.895,70.035
		c0,37.098,30.067,67.182,67.183,67.182c37.099,0,67.186-30.084,67.186-67.182c0-37.11-30.087-67.184-67.186-67.184
		C32.962,2.852,2.895,32.925,2.895,70.035z"/>
	<radialGradient id="SVGID_2_" cx="46.335" cy="52.2129" r="21.6444" gradientUnits="userSpaceOnUse">
		<stop  offset="0" style="stop-color:#762817"/>
		<stop  offset="1" style="stop-color:#551C1B"/>
	</radialGradient>
	<path fill="url(#SVGID_2_)" d="M28.161,49.22C30.354,35.9,40.27,26.447,50.303,28.095c10.041,1.654,16.402,13.786,14.208,27.109
		C62.309,68.535,52.4,77.985,42.361,76.328C32.323,74.68,25.961,62.535,28.161,49.22z"/>
	<radialGradient id="SVGID_3_" cx="46.7847" cy="44.8013" r="13.3218" gradientUnits="userSpaceOnUse">
		<stop  offset="0" style="stop-color:#FFFFFF"/>
		<stop  offset="0.5942" style="stop-color:#FDFDFD"/>
		<stop  offset="0.808" style="stop-color:#F6F6F6"/>
		<stop  offset="0.9601" style="stop-color:#EBEBEB"/>
		<stop  offset="1" style="stop-color:#E6E6E6"/>
	</radialGradient>
	<path fill="url(#SVGID_3_)" d="M34.262,45.422c-0.148-7.769,5.333-14.338,12.248-14.679c6.927-0.351,12.652,5.664,12.798,13.433
		c0.153,7.769-5.34,14.336-12.252,14.684C40.136,59.205,34.417,53.188,34.262,45.422z"/>
	<radialGradient id="SVGID_4_" cx="93.8252" cy="52.2129" r="21.6438" gradientUnits="userSpaceOnUse">
		<stop  offset="0" style="stop-color:#762817"/>
		<stop  offset="1" style="stop-color:#551C1B"/>
	</radialGradient>
	<path fill="url(#SVGID_4_)" d="M111.998,49.22c-2.19-13.32-12.109-22.773-22.143-21.125C79.817,29.749,73.457,41.881,75.65,55.204
		c2.194,13.331,12.104,22.781,22.148,21.124C107.835,74.68,114.197,62.535,111.998,49.22z"/>
	<radialGradient id="SVGID_5_" cx="93.377" cy="44.8013" r="13.3234" gradientUnits="userSpaceOnUse">
		<stop  offset="0" style="stop-color:#FFFFFF"/>
		<stop  offset="0.5942" style="stop-color:#FDFDFD"/>
		<stop  offset="0.808" style="stop-color:#F6F6F6"/>
		<stop  offset="0.9601" style="stop-color:#EBEBEB"/>
		<stop  offset="1" style="stop-color:#E6E6E6"/>
	</radialGradient>
	<path fill="url(#SVGID_5_)" d="M105.903,45.422c0.142-7.769-5.34-14.338-12.259-14.679C86.729,30.392,81,36.407,80.852,44.176
		C80.7,51.944,86.188,58.512,93.105,58.86C100.025,59.205,105.746,53.188,105.903,45.422z"/>
	<path fill="#551C1B" d="M78.029,99.985c0,8.757-3.525,15.87-7.887,15.87c-4.354,0-7.882-7.113-7.882-15.87H78.029z"/>
	<path fill="#7B4243" d="M70.143,115.855c-3.968,0-7.235-5.908-7.791-13.578h-0.007c0,8.664,3.492,15.697,7.798,15.697
		c4.315,0,7.805-7.033,7.805-15.697h-0.009C77.383,109.947,74.115,115.855,70.143,115.855z"/>
</g>
</svg>
