<svg version="1.1" xmlns="http://www.w3.org/2000/svg" xmlns:xlink="http://www.w3.org/1999/xlink" x="0px" y="0px"
	 width="140px" height="140px" viewBox="0 0 140 140" enable-background="new 0 0 140 140" xml:space="preserve">
<g>
	<radialGradient id="SVGID_1_" cx="70.5415" cy="70.0078" r="67.2685" gradientUnits="userSpaceOnUse">
		<stop  offset="0" style="stop-color:#F5F6CB"/>
		<stop  offset="0.2146" style="stop-color:#F6F2C6"/>
		<stop  offset="0.4376" style="stop-color:#F7EAB9"/>
		<stop  offset="0.6644" style="stop-color:#F8DEA5"/>
		<stop  offset="0.8926" style="stop-color:#FBCE8A"/>
		<stop  offset="1" style="stop-color:#FCC57C"/>
	</radialGradient>
	<path fill="url(#SVGID_1_)" stroke="#E8B06C" stroke-width="2" stroke-miterlimit="10" d="M137.642,70.008
		c0,37.242-30.048,67.437-67.102,67.437c-37.055,0-67.099-30.194-67.099-67.437c0-37.245,30.044-67.437,67.099-67.437
		C107.594,2.571,137.642,32.763,137.642,70.008z"/>
	<linearGradient id="SVGID_2_" gradientUnits="userSpaceOnUse" x1="48.8501" y1="26.8755" x2="48.8501" y2="46.3152">
		<stop  offset="0" style="stop-color:#944B2A"/>
		<stop  offset="1" style="stop-color:#6B2613"/>
	</linearGradient>
	<ellipse fill="url(#SVGID_2_)" cx="48.85" cy="49.555" rx="9.665" ry="13.771"/>
	<linearGradient id="SVGID_3_" gradientUnits="userSpaceOnUse" x1="90.7285" y1="26.8755" x2="90.7285" y2="46.3152">
		<stop  offset="0" style="stop-color:#944B2A"/>
		<stop  offset="1" style="stop-color:#6B2613"/>
	</linearGradient>
	<path fill="url(#SVGID_3_)" d="M100.395,49.555c0,7.605-4.33,13.771-9.67,13.771c-5.335,0-9.661-6.165-9.661-13.771
		s4.326-13.77,9.661-13.77C96.064,35.785,100.395,41.949,100.395,49.555z"/>
	<text transform="matrix(1 0 0 1 59.001 114.667)" fill="#711312" font-family="'MyriadPro-Regular'" font-size="60">?</text>
</g>
</svg>
